<?xml version="1.0" encoding="UTF-8" standalone="no"?>
<svg
   version="1.0"
   width="170pt"
   height="192.34451pt"
   viewBox="0 0 170 192.34451"
   preserveAspectRatio="xMidYMid"
   id="svg14"
   xmlns="http://www.w3.org/2000/svg"
   xmlns:svg="http://www.w3.org/2000/svg">
  <defs
     id="defs18" />
  <metadata
     id="metadata2">
Created by potrace 1.16, written by Peter Selinger 2001-2019
</metadata>
  <g
     transform="matrix(0.1,0,0,-0.1,-16.999999,194.24682)"
     fill="#000000"
     stroke="none"
     id="g12">
    <path
       d="m 953,1938 c -18,-5 -33,-13 -33,-18 0,-6 -6,-10 -14,-10 -8,0 -21,-6 -29,-14 -8,-8 -29,-22 -48,-31 -49,-23 -93,-47 -99,-54 -3,-3 -18,-13 -35,-21 -16,-8 -32,-17 -35,-20 -3,-3 -18,-12 -35,-20 -16,-8 -32,-17 -35,-20 -3,-3 -16,-11 -30,-18 -14,-7 -47,-26 -75,-43 -27,-16 -58,-32 -67,-35 -10,-4 -18,-9 -18,-13 0,-4 -16,-13 -35,-20 -19,-7 -35,-16 -35,-21 0,-4 -13,-13 -30,-19 -16,-5 -30,-14 -30,-20 0,-5 -14,-12 -31,-16 -17,-4 -33,-14 -36,-22 -7,-19 39,-60 77,-68 16,-3 31,-13 34,-21 3,-8 12,-14 20,-14 8,0 22,-8 32,-17 19,-20 95,-24 101,-6 2,6 33,26 68,44 36,18 65,36 65,40 0,4 13,10 30,14 16,4 33,12 37,18 5,7 30,23 58,37 27,14 64,35 83,48 18,12 37,22 42,22 6,0 10,4 10,9 0,5 11,12 24,15 14,3 31,12 38,19 8,6 27,19 43,27 l 30,16 3,124 c 1,68 -1,126 -5,130 -4,4 -23,3 -40,-2 z"
       id="path4" />
    <path
       d="m 1050,1805 c 0,-111 3,-135 15,-135 7,0 18,-6 22,-14 4,-7 25,-19 46,-25 20,-7 37,-16 37,-19 0,-4 21,-19 47,-32 47,-25 109,-63 128,-78 6,-4 26,-14 45,-22 19,-8 38,-19 43,-26 4,-7 21,-15 37,-19 17,-4 30,-10 30,-15 0,-4 14,-13 30,-20 17,-7 30,-16 30,-20 0,-4 12,-11 28,-15 63,-16 62,-10 62,-385 0,-370 2,-355 -57,-379 -18,-7 -33,-17 -33,-21 0,-4 -17,-14 -37,-24 -54,-24 -96,-47 -111,-63 -7,-7 -20,-13 -27,-13 -7,0 -20,-6 -27,-13 -7,-7 -28,-20 -45,-28 -18,-7 -33,-17 -33,-21 0,-5 -6,-8 -13,-8 -8,0 -24,-9 -37,-20 -13,-11 -34,-23 -47,-26 -13,-4 -23,-9 -23,-13 0,-4 -16,-13 -35,-21 -19,-8 -35,-16 -35,-19 0,-4 -14,-12 -31,-20 -25,-11 -39,-11 -70,-2 -21,7 -39,16 -39,21 0,4 -17,14 -37,21 -21,6 -42,18 -46,25 -4,8 -14,14 -22,14 -7,0 -20,7 -28,14 -16,16 -103,68 -156,92 -19,8 -40,22 -48,30 -8,8 -25,17 -39,20 -13,3 -24,9 -24,13 0,3 -15,13 -32,20 -18,8 -39,21 -46,28 -7,7 -20,13 -27,13 -7,0 -21,7 -29,16 -14,13 -16,60 -16,358 v 342 l -35,13 c -19,7 -35,16 -35,21 0,5 -17,14 -37,21 -21,6 -42,18 -46,25 -4,8 -15,14 -22,14 -8,0 -15,5 -15,10 0,6 -9,10 -20,10 -20,0 -20,-7 -20,-474 0,-466 0,-475 20,-481 11,-3 20,-10 20,-15 0,-5 16,-14 35,-21 19,-7 35,-16 35,-20 0,-4 16,-13 35,-20 19,-7 35,-16 35,-20 0,-4 15,-13 33,-20 17,-7 38,-19 45,-26 7,-7 20,-13 28,-13 8,0 14,-4 14,-9 0,-5 15,-14 33,-22 17,-7 34,-16 37,-19 3,-4 32,-21 65,-40 33,-19 62,-37 65,-41 3,-4 18,-11 33,-14 16,-4 31,-13 33,-20 3,-7 23,-18 45,-25 21,-7 39,-16 39,-19 0,-4 21,-18 48,-31 26,-14 58,-33 71,-42 31,-23 149,-26 157,-4 3,8 16,17 29,20 13,3 47,22 76,41 30,19 62,38 71,41 10,3 18,9 18,14 0,5 14,11 31,15 17,4 33,13 35,20 3,6 23,18 45,25 21,7 39,16 39,20 0,4 15,13 33,21 17,7 34,15 37,18 5,7 39,26 85,50 17,9 33,21 38,28 4,6 21,14 37,18 17,4 30,10 30,15 0,4 29,22 65,41 36,18 65,36 65,40 0,4 9,9 20,12 20,5 20,14 20,505 v 501 l -26,20 c -15,12 -32,21 -39,21 -6,0 -22,9 -35,20 -13,11 -34,23 -47,26 -13,4 -23,9 -23,13 0,4 -16,13 -35,21 -19,8 -35,17 -35,22 0,4 -6,8 -13,8 -8,0 -24,9 -37,20 -13,11 -34,23 -47,26 -13,4 -23,9 -23,13 0,4 -16,13 -35,21 -19,8 -35,16 -35,19 0,4 -15,12 -32,20 -18,8 -35,17 -38,21 -6,9 -53,34 -102,56 -21,10 -38,21 -38,25 0,4 -16,13 -35,19 -19,6 -35,16 -35,21 0,5 -6,9 -12,9 -7,0 -24,9 -38,20 -14,11 -33,20 -42,20 -16,0 -18,-13 -18,-135 z"
       id="path6" />
    <path
       d="m 1040,1310 c 0,-5 -11,-10 -25,-10 -30,0 -77,-20 -88,-37 -4,-7 -13,-13 -19,-13 -14,0 -58,-42 -58,-56 0,-7 -6,-14 -14,-17 -8,-3 -17,-21 -21,-39 -4,-18 -13,-36 -19,-40 -14,-9 -14,-227 0,-236 6,-4 16,-22 22,-41 10,-28 59,-83 114,-127 19,-15 77,-34 104,-34 13,0 24,-4 24,-10 0,-6 30,-10 70,-10 39,0 70,4 70,9 0,5 15,11 33,14 25,3 37,-1 54,-19 27,-29 57,-31 75,-5 8,11 26,25 41,32 30,14 36,49 12,69 -20,17 -19,32 5,60 11,13 20,31 20,41 0,9 6,19 13,22 16,5 17,224 1,235 -6,4 -15,21 -18,39 -4,17 -14,34 -22,37 -8,3 -14,11 -14,17 0,15 -42,59 -57,59 -7,0 -16,6 -20,13 -10,16 -58,37 -83,37 -11,0 -20,5 -20,10 0,6 -37,10 -90,10 -53,0 -90,-4 -90,-10 z m 195,-183 c 33,-31 47,-54 52,-80 3,-20 10,-37 14,-37 12,0 11,-37 -1,-45 -5,-3 -10,-17 -10,-30 0,-34 -13,-38 -34,-9 -24,31 -61,31 -90,-1 -13,-14 -26,-25 -30,-25 -4,0 -14,-7 -23,-15 -16,-17 -12,-27 32,-70 l 20,-20 -24,-3 c -33,-5 -91,7 -91,18 0,6 -6,10 -14,10 -21,0 -65,61 -71,99 -4,20 -10,44 -15,53 -5,9 -6,19 -1,22 5,3 12,26 15,50 6,36 16,52 53,85 43,39 48,41 109,41 61,0 65,-2 109,-43 z"
       id="path8" />
    <path
       d="M 580,980 V 660 h 80 80 v 320 320 h -80 -80 z"
       id="path10" />
  </g>
  <path
     style="fill:#ff00ff;stroke-width:0.245098"
     d="M 22.910148,57.237093 C 21.152114,56.854877 20.772457,56.671262 19.068763,55.379264 18.373101,54.851708 17.417893,54.350022 16.946079,54.264404 15.685688,54.035691 15.085688,53.662305 14.442538,52.706433 13.790164,51.73685 12.371893,50.856279 11.081002,50.61933 8.8076276,50.202046 4.7595326,47.385926 3.8192176,45.567558 c -0.896263,-1.733181 -0.0614,-2.649559 3.462386,-3.800463 1.573338,-0.513868 2.155183,-0.851532 3.0561424,-1.773571 0.802274,-0.821045 1.620674,-1.33834 2.932644,-1.853669 1.271689,-0.499506 2.161335,-1.053184 2.953665,-1.838235 0.840606,-0.832885 1.791956,-1.404687 3.678518,-2.210952 1.632925,-0.697867 2.810551,-1.373181 3.286737,-1.884792 0.408135,-0.438499 1.56927,-1.172945 2.580299,-1.632104 1.011029,-0.45916 3.713235,-1.920461 6.004902,-3.247339 2.291666,-1.326875 5.379902,-3.089281 6.862745,-3.916456 1.482843,-0.827176 3.137255,-1.809644 3.67647,-2.183262 0.539216,-0.373619 1.97304,-1.179753 3.186275,-1.791409 1.213235,-0.611656 2.8125,-1.52351 3.553921,-2.026345 0.741423,-0.502833 2.120099,-1.304432 3.063726,-1.78133 0.943628,-0.476899 2.784292,-1.583498 4.090368,-2.459111 1.306074,-0.875612 4.58773,-2.714361 7.292568,-4.0861082 2.84853,-1.444621 5.723407,-3.102298 6.832222,-3.939522 1.395735,-1.053861 2.262735,-1.5201532 3.200385,-1.721244 0.97695,-0.2095177 1.337633,-0.4114822 1.500667,-0.8402902 0.297316,-0.7820018 1.08456,-1.2818742 2.91033,-1.84795459 1.880378,-0.5830111 3.82275,-0.7097592 4.25514,-0.277666 0.379178,0.3789113 0.557438,15.10286499 0.25716,21.24023099 l -0.191782,3.919737 -2.328427,1.244184 c -1.280641,0.684301 -3.37623,1.959475 -4.656863,2.83372 -1.334347,0.910912 -2.851635,1.730966 -3.553927,1.920801 -1.74918,0.472821 -2.500148,0.89787 -2.866133,1.622238 -0.207277,0.410258 -0.795367,0.826696 -1.66818,1.181275 -0.74142,0.301199 -2.671567,1.379444 -4.289212,2.396096 -1.617653,1.016654 -4.816178,2.867002 -7.107845,4.111884 -2.291667,1.244885 -4.642897,2.666802 -5.224956,3.159819 -1.614672,1.367657 -2.67749,1.93785 -4.871893,2.613726 -1.379049,0.424747 -2.273698,0.868661 -2.854367,1.416303 -0.465166,0.438708 -2.042909,1.46902 -3.506093,2.289581 -1.463186,0.820564 -3.918407,2.197051 -5.456044,3.058868 -1.537637,0.861814 -3.273233,2.030076 -3.856878,2.596137 -0.583644,0.566061 -1.476311,1.14449 -1.983706,1.285397 -1.222089,0.339385 -3.268653,0.296044 -5.130034,-0.108639 z"
     id="path2333" />
  <path
     style="fill:#ff00ff;stroke-width:0.245098"
     d="m 23.441178,57.230867 c -0.134805,-0.0495 -0.703456,-0.207684 -1.26367,-0.351524 C 21.617294,56.735502 20.481669,56.16555 19.653899,55.612786 18.826128,55.060021 17.574926,54.389877 16.87345,54.123573 16.09907,53.829592 15.06565,53.131852 14.2428,52.347421 13.147639,51.303394 12.540193,50.945828 11.077473,50.484186 8.9392236,49.809342 6.2089096,48.088734 4.7524516,46.498242 3.7428326,45.39571 3.5114146,44.683911 3.8639196,43.765299 c 0.178357,-0.464793 1.862047,-1.351212 3.725374,-1.961317 0.763876,-0.250115 1.912038,-0.932488 2.7690254,-1.645679 0.805227,-0.670117 2.092986,-1.495953 2.861688,-1.835191 0.768702,-0.33924 2.1697,-1.207108 3.113327,-1.928598 0.943627,-0.721488 2.59804,-1.712873 3.676471,-2.203073 1.078431,-0.490204 2.512254,-1.311491 3.186274,-1.825084 0.67402,-0.513593 1.997549,-1.31972 2.941177,-1.791392 0.943627,-0.471674 5.024509,-2.757681 9.068627,-5.080015 4.044118,-2.322336 8.566177,-4.906419 10.04902,-5.742408 4.259637,-2.401472 9.163542,-5.27741 11.000449,-6.451306 0.927696,-0.592855 3.960786,-2.294926 6.740196,-3.7823802 2.77941,-1.487454 6.022028,-3.346149 7.205813,-4.130436 1.183792,-0.784285 2.69877,-1.6074648 3.366615,-1.829287 0.74619,-0.2478458 1.4019,-0.6668258 1.701022,-1.086909 0.56265,-0.7901669 2.212598,-1.55414869 4.258403,-1.97178679 2.157682,-0.4404768 2.514307,-0.27156 2.700562,1.27912729 0.2049,1.705986 0.204083,19.4369257 -7.5e-4,21.8631877 l -0.160297,1.896365 -1.209345,0.65287 c -0.665138,0.359079 -2.716163,1.582599 -4.557833,2.718929 -1.841677,1.136333 -4.065412,2.328689 -4.941637,2.649676 -0.93591,0.342851 -1.99758,0.96305 -2.573528,1.503373 -0.539212,0.505867 -1.697302,1.284093 -2.573527,1.729392 -0.876225,0.445297 -2.3652,1.277233 -3.308828,1.84875 -0.943627,0.571515 -3.955485,2.324581 -6.693027,3.895706 -2.737539,1.571123 -5.578127,3.310181 -6.312416,3.864576 -0.734292,0.554395 -2.475157,1.47262 -3.868591,2.0405 -1.393434,0.56788 -3.240345,1.529199 -4.104249,2.136264 -0.863903,0.607067 -3.476052,2.176395 -5.804778,3.4874 -2.328723,1.311005 -4.920634,2.909576 -5.759804,3.552378 -0.839166,0.642804 -1.766671,1.297412 -2.061117,1.454683 -0.481765,0.257324 -4.251826,0.37939 -4.856799,0.157253 z"
     id="path2335" />
  <path
     style="fill:#ff00ff;stroke-width:0.245098"
     d="M 41.210785,96.330148 V 64.467406 h 7.843137 7.843138 V 96.330148 128.1929 h -7.843138 -7.843137 z"
     id="path2337" />
  <path
     style="fill:#c82f78;fill-opacity:1;stroke-width:0.245098"
     d="m 114.59191,131.72671 c -0.55337,-0.20058 -1.78496,-1.06615 -2.73686,-1.92348 -0.9519,-0.85733 -2.14205,-1.69454 -2.64479,-1.86046 -1.66336,-0.54895 -4.9971,0.053 -6.1353,1.1079 -0.85538,0.79273 -2.15025,0.97459 -6.962219,0.97778 -4.90744,0.003 -6.23345,-0.18963 -7.00158,-1.01844 -0.45479,-0.49074 -0.9302,-0.6586 -2.35995,-0.8333 -4.739975,-0.57916 -8.580613,-2.01658 -11.37089,-4.25575 -2.52012,-2.02238 -7.2807,-6.91878 -8.774625,-9.02497 -0.645548,-0.91011 -1.536285,-2.52746 -1.979423,-3.5941 -0.443137,-1.06664 -1.14591,-2.41759 -1.561709,-3.00211 -0.620745,-0.87263 -0.80319,-1.44948 -1.019768,-3.22429 -0.322387,-2.64194 -0.32553,-15.324257 -0.0045,-17.691415 0.128017,-0.943627 0.23637,-1.838392 0.24078,-1.988362 0.0045,-0.149963 0.3252,-0.67179 0.712868,-1.159605 0.387667,-0.487815 1.01322,-1.854083 1.390117,-3.03615 0.937935,-2.941665 1.367092,-3.734355 2.525265,-4.664415 0.627457,-0.503873 1.084665,-1.122045 1.236442,-1.671735 0.487733,-1.766415 3.883515,-5.000558 5.808593,-5.532098 0.526072,-0.145256 1.348275,-0.720992 2.024497,-1.417632 1.835888,-1.891305 5.099273,-3.231574 8.708493,-3.576568 1.35159,-0.129194 1.79806,-0.280614 2.24301,-0.760726 0.81655,-0.881069 2.82315,-1.131732 9.05971,-1.131732 6.245069,0 8.242789,0.25025 9.063029,1.135301 0.38349,0.413787 0.93348,0.65138 1.7528,0.757196 3.44693,0.44517 6.43705,1.73942 8.18397,3.542362 0.7694,0.79407 1.51163,1.303779 2.14814,1.475169 1.97273,0.531203 5.00952,3.627315 5.78365,5.896643 0.20693,0.606615 0.56109,1.21323 0.78702,1.348035 1.6183,0.965572 2.10089,1.75461 3.02559,4.946925 0.2805,0.968362 0.79141,2.09508 1.13534,2.503822 0.34393,0.408743 0.72793,1.100903 0.85333,1.538138 0.65955,2.29974 0.91803,11.592315 0.47262,16.991507 -0.33228,4.02799 -0.4281,4.41995 -1.35021,5.52365 -0.49095,0.58762 -0.87423,1.37354 -0.9802,2.00986 -0.21278,1.27769 -0.78548,2.43925 -1.96371,3.98282 -1.49034,1.95245 -1.82615,2.64195 -1.82711,3.75152 -7.4e-4,0.90284 0.15076,1.21592 1.06778,2.20589 1.36612,1.47479 1.62738,1.99383 1.62738,3.23311 0,1.77723 -0.82575,2.83316 -3.18628,4.07447 -0.74142,0.38988 -2.06495,1.4266 -2.94118,2.30381 -0.87622,0.87722 -1.75857,1.72213 -1.96078,1.87758 -0.62963,0.48405 -2.03117,0.56745 -3.08946,0.18385 z M 99.478041,114.86028 c 0.09,-0.09 -0.8964,-1.23543 -2.192,-2.54541 -2.67927,-2.709 -3.62428,-3.99934 -3.62428,-4.94865 0,-0.82772 1.36179,-2.2373 2.82668,-2.92587 0.58228,-0.27371 1.94185,-1.32357 3.02127,-2.33304 2.119359,-1.98201 3.230729,-2.590882 4.729069,-2.590882 1.54543,0 2.6762,0.631702 4.39409,2.454692 2.35183,2.49575 3.21282,2.23859 3.49536,-1.04402 0.15043,-1.747642 0.3942,-2.409472 1.22217,-3.318102 0.37325,-0.40961 0.53652,-0.98011 0.60978,-2.13067 0.0904,-1.420168 0.0421,-1.62566 -0.50307,-2.136695 -0.83616,-0.783847 -1.08351,-1.32309 -1.55224,-3.383978 -0.53789,-2.36487 -0.92737,-3.257512 -2.20584,-5.055442 -1.50934,-2.122582 -5.78015,-6.0807 -7.44137,-6.89655 -1.36233,-0.669045 -1.37806,-0.670612 -6.757659,-0.670612 -5.08025,0 -5.45596,0.03158 -6.4951,0.545407 -1.40453,0.694538 -2.99743,1.998908 -5.71247,4.677758 -2.694728,2.658817 -3.381615,3.987307 -4.195913,8.115262 -0.380205,1.927365 -0.785947,3.295088 -1.105882,3.72782 -0.633195,0.85644 -0.637335,1.56815 -0.01725,2.9699 0.268432,0.60685 0.767505,2.30285 1.109047,3.768902 0.778275,3.34072 1.305255,4.60728 2.955045,7.10233 1.645663,2.4888 2.941743,3.679 4.408413,4.04832 0.80315,0.20223 1.1882,0.44634 1.34195,0.85075 0.5177,1.36164 3.48082,2.07563 8.1488,1.96353 1.85779,-0.0446 3.45143,-0.15475 3.54143,-0.24475 z"
     id="path2339" />
  <path
     style="fill:#c82f78;fill-opacity:1;stroke-width:0.245098"
     d="M 22.763351,57.092884 C 21.667328,56.834664 20.329255,56.166026 19.165052,55.294811 18.700438,54.947122 17.709073,54.43396 16.962018,54.15445 16.089099,53.82785 15.118445,53.183362 14.245649,52.350855 13.146988,51.302911 12.541789,50.94633 11.077473,50.484186 8.9320166,49.807068 6.2078966,48.08759 4.7382476,46.482833 c -0.904378,-0.98752 -1.04504,-1.282508 -0.980391,-2.056015 0.06391,-0.76462 0.225789,-0.987944 1.055869,-1.456603 0.539216,-0.304441 1.651181,-0.778758 2.471034,-1.054041 0.913676,-0.306785 2.091221,-0.984466 3.0422854,-1.750844 0.853404,-0.687681 2.16791,-1.522284 2.921123,-1.854671 0.753214,-0.33239 2.141539,-1.194655 3.085166,-1.916145 0.943627,-0.721488 2.59804,-1.712873 3.676471,-2.203073 1.078431,-0.490204 2.512254,-1.30644 3.186274,-1.813858 0.67402,-0.507419 2.391212,-1.537672 3.815982,-2.289452 1.424771,-0.751779 5.174771,-2.849835 8.333332,-4.662345 3.158564,-1.812511 6.956078,-3.98645 8.438922,-4.830977 5.186333,-2.953781 9.090448,-5.236846 11.777019,-6.887013 1.489615,-0.914963 4.688142,-2.72742 7.107844,-4.0276812 4.541363,-2.44037 6.389235,-3.511617 8.45229,-4.899953 0.659145,-0.443569 1.752465,-0.990506 2.429603,-1.215416 0.761677,-0.2529885 1.416787,-0.6696075 1.717927,-1.092522 0.56265,-0.7901669 2.212598,-1.55414869 4.258403,-1.97178679 2.157682,-0.4404768 2.514307,-0.27156 2.700562,1.27912729 0.201113,1.6744462 0.15972,20.7400517 -0.04875,22.4609977 l -0.159585,1.317273 -1.960785,1.10487 c -1.078425,0.607676 -3.118867,1.829696 -4.534312,2.715598 -1.415438,0.885902 -3.28605,1.870549 -4.156913,2.188103 -1.01031,0.368399 -1.992862,0.960383 -2.714737,1.635613 -0.622238,0.582031 -1.388933,1.139998 -1.70376,1.239919 -0.314828,0.09992 -2.015993,1.031953 -3.780368,2.071182 -1.764367,1.039227 -4.917502,2.85899 -7.006965,4.043916 -2.089461,1.184926 -4.681372,2.771441 -5.759804,3.525591 -1.078431,0.754147 -3.073806,1.826037 -4.434169,2.381975 -1.36036,0.555939 -3.180213,1.508868 -4.044117,2.117618 -0.863903,0.608753 -3.466231,2.173162 -5.782952,3.476463 -2.31672,1.303304 -4.765591,2.807057 -5.441931,3.341674 -2.323108,1.836311 -2.63775,1.95974 -4.929184,1.933669 -1.145833,-0.01304 -2.498649,-0.121551 -3.006258,-0.241142 z"
     id="path3343" />
  <path
     style="fill:#c82f78;fill-opacity:1;stroke-width:0.245098"
     d="M 41.210785,96.330148 V 64.467406 h 7.843137 7.843138 V 96.330148 128.1929 h -7.843138 -7.843137 z"
     id="path3345" />
  <path
     style="fill:#c82f78;fill-opacity:1;stroke-width:0.245098"
     d="m 114.5162,131.48707 c -0.46022,-0.19972 -1.56315,-0.95172 -2.45099,-1.67113 -2.6944,-2.18327 -2.70623,-2.18815 -5.00777,-2.06735 -2.00973,0.10549 -2.27121,0.19081 -4.81724,1.57206 -0.76877,0.41706 -1.41836,0.46538 -6.255609,0.46538 h -5.39776 l -1.21989,-0.76557 c -0.87642,-0.55003 -1.77071,-0.85091 -3.17628,-1.06866 -6.65639,-1.0312 -9.81068,-2.77991 -15.32675,-8.49702 -3.672368,-3.80621 -4.29105,-4.63328 -6.074498,-8.12059 -0.876675,-1.71423 -1.824547,-3.55796 -2.106382,-4.09718 -0.456488,-0.87337 -0.52602,-1.52888 -0.636945,-6.0049 -0.06848,-2.763482 -0.05715,-7.39583 0.02512,-10.294115 l 0.149655,-5.269612 0.882202,-1.439865 c 0.485213,-0.791933 1.122533,-2.170613 1.41627,-3.063728 0.759405,-2.308972 1.5198,-3.706927 2.524913,-4.641915 0.480195,-0.446692 1.09497,-1.31379 1.36617,-1.926877 0.653498,-1.47735 3.265927,-4.006275 5.030272,-4.869488 0.776948,-0.380122 1.977248,-1.176968 2.667338,-1.770765 2.20017,-1.893166 4.82598,-2.980241 8.408405,-3.481042 1.15461,-0.161408 2.06778,-0.454059 2.65031,-0.849376 1.26697,-0.859793 2.47481,-0.996156 8.82343,-0.996156 6.356879,0 7.555939,0.136003 8.831669,1.001731 0.50867,0.345196 1.65639,0.753999 2.65126,0.944351 3.32795,0.63674 5.46165,1.622705 7.50328,3.467194 0.52447,0.47383 1.64362,1.195768 2.487,1.604308 1.9912,0.964553 4.11138,3.124073 5.09917,5.193803 0.45531,0.954007 1.09181,1.83456 1.61402,2.23287 0.98431,0.750765 1.53458,1.739947 2.32708,4.183192 0.30609,0.943628 0.92715,2.323268 1.38015,3.065858 0.72383,1.186567 0.85686,1.676602 1.09785,4.04412 0.3321,3.262567 0.13987,15.908962 -0.26625,17.516692 -0.15246,0.6035 -0.59774,1.58121 -0.98952,2.17271 -0.3918,0.59149 -0.8922,1.69699 -1.11203,2.45666 -0.21982,0.75967 -0.85144,2.04298 -1.40361,2.85181 -0.55216,0.80882 -1.25881,1.84443 -1.57033,2.30136 -0.41335,0.60628 -0.56639,1.17646 -0.56639,2.1101 0,1.13399 0.10706,1.40158 0.94246,2.3555 1.27166,1.45207 1.50851,1.95916 1.50851,3.2297 0,1.46816 -0.7675,2.54353 -2.57385,3.60627 -0.80194,0.47182 -2.17773,1.52535 -3.05731,2.3412 -2.95591,2.74171 -3.53687,2.97708 -5.37715,2.17847 z M 98.992641,115.04822 c 0.30331,-0.0813 0.55148,-0.23343 0.55148,-0.3381 0,-0.10467 -1.06302,-1.32741 -2.36226,-2.7172 -3.66884,-3.92451 -3.93992,-4.63213 -2.35588,-6.14974 0.50552,-0.48432 1.25,-1.04949 1.65441,-1.25594 0.40442,-0.20645 1.49311,-1.01824 2.41932,-1.80397 3.082169,-2.61467 3.789089,-3.021752 5.247629,-3.021752 1.64695,0 2.41428,0.402032 4.4922,2.353612 1.74873,1.64239 2.67748,1.9784 3.1302,1.13247 0.12819,-0.23952 0.35422,-1.30652 0.50229,-2.37112 0.20268,-1.457212 0.43379,-2.151382 0.93503,-2.808542 0.53563,-0.70225 0.6839,-1.19337 0.75842,-2.51211 0.086,-1.52184 0.0396,-1.706347 -0.6484,-2.577045 -0.50972,-0.645127 -0.94031,-1.696297 -1.37954,-3.367837 -0.35119,-1.3365 -0.87571,-2.825468 -1.16559,-3.308828 -1.58276,-2.639182 -5.74118,-6.812122 -8.28665,-8.31561 -1.07634,-0.635737 -1.21824,-0.653415 -5.882359,-0.732772 -2.62867,-0.0447 -5.35761,-0.0093 -6.06431,0.07868 -1.75832,0.218947 -3.71357,1.568272 -6.92817,4.781145 -3.03132,3.0297 -3.65136,4.138912 -4.555792,8.149965 -0.342008,1.516792 -0.835035,3.240577 -1.095608,3.830632 -0.56652,1.28286 -0.597975,2.19956 -0.115125,3.35519 0.19725,0.47209 0.69633,2.15053 1.109063,3.729872 1.511977,5.78563 4.417002,10.22873 7.317762,11.19221 0.73809,0.24515 1.3063,0.61495 1.49943,0.97582 0.3558,0.66479 1.59381,1.28048 3.1955,1.58917 1.28053,0.2468 7.2148,0.32946 8.02695,0.1118 z"
     id="path3347" />
  <path
     style="fill:#c82f78;fill-opacity:1;stroke-width:0.245098"
     d="m 114.54209,131.49795 c -0.44598,-0.19372 -1.70916,-1.07096 -2.8071,-1.94941 -2.18922,-1.7516 -2.83641,-1.97524 -5.17317,-1.78767 -1.40052,0.11242 -1.9739,0.31876 -4.32162,1.55525 -0.70294,0.37021 -1.57677,0.46969 -4.838989,0.55087 -5.14018,0.12791 -6.89,-0.0593 -8.07618,-0.86432 -0.65439,-0.44408 -1.69525,-0.76117 -3.62167,-1.1033 -6.666618,-1.18401 -9.326635,-2.72317 -15.14665,-8.76426 -3.529755,-3.66384 -4.1199,-4.5007 -6.575602,-9.32456 l -1.809203,-3.55392 -0.125167,-5.13564 c -0.06885,-2.824592 -0.0615,-7.486827 0.01635,-10.360512 0.128588,-4.747425 0.187215,-5.286698 0.64161,-5.9013 0.712665,-0.96393 1.409805,-2.410575 1.913243,-3.9702 0.635925,-1.970063 1.441793,-3.454748 2.328135,-4.28922 0.429555,-0.404408 1.060717,-1.283663 1.402583,-1.953885 0.853965,-1.674195 3.310297,-4.055625 5.063302,-4.908908 0.79275,-0.385875 2.005987,-1.187423 2.696077,-1.78122 0.69009,-0.593798 1.900643,-1.408518 2.690115,-1.810491 1.564035,-0.79635 4.675427,-1.677848 5.922237,-1.677848 0.43127,0 1.41946,-0.339027 2.19596,-0.753393 1.69281,-0.903334 3.92856,-1.198682 9.07384,-1.198682 4.946799,0 7.515199,0.314537 8.822009,1.080382 0.58708,0.344048 1.82593,0.7851 2.753,0.980118 3.42909,0.721329 5.43821,1.639905 7.28208,3.329382 0.54772,0.50186 1.71095,1.271775 2.58495,1.710927 2.02503,1.017496 4.08581,3.1113 5.15354,5.236133 0.45955,0.914535 1.18042,1.908135 1.63709,2.25645 0.90354,0.68916 1.50836,1.75122 2.15279,3.780255 0.23547,0.74142 0.85497,2.138392 1.37666,3.104378 0.77444,1.434022 0.99404,2.1537 1.19658,3.92157 0.32423,2.829989 0.32227,12.812424 -0.003,16.048574 -0.22462,2.23374 -0.35831,2.7066 -1.11448,3.94189 -0.47258,0.77202 -1.03,1.98526 -1.23872,2.69608 -0.20871,0.71083 -1.08587,2.34389 -1.94924,3.62903 -1.39841,2.08151 -1.56978,2.46779 -1.56978,3.53814 0,1.03568 0.12987,1.35596 0.94083,2.32025 1.28161,1.52391 1.51029,2.01594 1.50923,3.24721 -0.001,1.51169 -0.70076,2.47547 -2.74964,3.78878 -0.97831,0.62708 -2.44164,1.76736 -3.25185,2.53394 -2.47774,2.34437 -3.20157,2.61168 -4.98002,1.83913 z M 98.992641,115.04822 c 0.30331,-0.0813 0.55148,-0.22715 0.55148,-0.32414 0,-0.097 -1.10493,-1.36182 -2.4554,-2.81074 -2.55846,-2.74497 -3.18186,-3.64905 -3.18186,-4.61441 0,-0.6414 1.40106,-2.11552 2.57353,-2.70772 0.40442,-0.20426 1.59044,-1.10234 2.63562,-1.99573 2.982699,-2.54953 3.485399,-2.833962 5.008789,-2.833962 1.66194,0 2.36689,0.365162 4.52064,2.341652 1.87768,1.72315 2.75686,2.01063 3.13194,1.02411 0.11622,-0.3057 0.33857,-1.37596 0.49409,-2.37835 0.19785,-1.275172 0.50062,-2.151412 1.0081,-2.917582 0.59757,-0.90216 0.72533,-1.34921 0.72533,-2.53798 0,-1.227287 -0.10751,-1.57816 -0.7194,-2.34769 -0.46656,-0.586762 -0.89909,-1.61535 -1.23066,-2.92662 -0.28119,-1.112032 -0.64241,-2.32527 -0.80271,-2.696077 -1.38166,-3.196155 -7.21031,-8.966738 -9.84824,-9.75012 -1.490349,-0.44259 -10.025349,-0.506055 -11.541149,-0.08582 -1.50856,0.418223 -3.3006,1.734383 -6.07656,4.462905 -2.827458,2.779148 -3.80221,4.388775 -4.478178,7.394918 -0.21219,0.943627 -0.662475,2.54289 -1.000635,3.55392 -0.762712,2.280344 -0.943162,3.482424 -0.61485,4.095894 0.13944,0.26055 0.702743,2.10675 1.25178,4.102672 1.693538,6.15652 4.469293,10.33174 7.555563,11.36484 0.44208,0.14798 1.07952,0.59677 1.41654,0.9973 0.59688,0.70934 2.13285,1.36869 3.66203,1.572 1.22138,0.16239 6.82351,0.17503 7.41421,0.0167 z"
     id="path3349" />
</svg>
